/* XPM */
static char * phet_logo_xpm[] = {
"32 17 497 2",
"  	c #2143A2",
". 	c #264DA9",
"+ 	c #2A59B3",
"@ 	c #2A58B2",
"# 	c #2B58B2",
"$ 	c #2B57B1",
"% 	c #2A55B1",
"& 	c #2A55B0",
"* 	c #2955B1",
"= 	c #2955B0",
"- 	c #2A57B1",
"; 	c #2A56B1",
"> 	c #2855AF",
", 	c #2654AE",
"' 	c #2253AC",
") 	c #1F50AA",
"! 	c #1C51A9",
"~ 	c #1C4FA6",
"{ 	c #1D4DA5",
"] 	c #1D4CA5",
"^ 	c #1D4BA2",
"/ 	c #1D4AA1",
"( 	c #1D489E",
"_ 	c #1C479D",
": 	c #1C469A",
"< 	c #1B4598",
"[ 	c #1B4497",
"} 	c #1E4299",
"| 	c #2244A1",
"1 	c #2D60B9",
"2 	c #3886DF",
"3 	c #3985DC",
"4 	c #3A85D8",
"5 	c #3A84D8",
"6 	c #3884D7",
"7 	c #3783D7",
"8 	c #3883D7",
"9 	c #3782D6",
"0 	c #3782D7",
"a 	c #3883D5",
"b 	c #3681D5",
"c 	c #357ED4",
"d 	c #2D7BCE",
"e 	c #2779CC",
"f 	c #1C77C9",
"g 	c #1173C0",
"h 	c #016CB8",
"i 	c #0069B4",
"j 	c #0064AC",
"k 	c #015EA5",
"l 	c #00569D",
"m 	c #005397",
"n 	c #004C8F",
"o 	c #004685",
"p 	c #00427F",
"q 	c #003A78",
"r 	c #003675",
"s 	c #0C3B7D",
"t 	c #2244A0",
"u 	c #21439F",
"v 	c #2E60B8",
"w 	c #3A8ADF",
"x 	c #3B89DC",
"y 	c #4089DC",
"z 	c #3E87DC",
"A 	c #3D86DB",
"B 	c #3E87DB",
"C 	c #3D87DA",
"D 	c #337FD1",
"E 	c #307CD0",
"F 	c #2379CB",
"G 	c #1774C4",
"H 	c #0B71BA",
"I 	c #016AB6",
"J 	c #0065AE",
"K 	c #015FA7",
"L 	c #0259A0",
"M 	c #005398",
"N 	c #014E90",
"O 	c #014685",
"P 	c #014280",
"Q 	c #013D7A",
"R 	c #013674",
"S 	c #0A3A7C",
"T 	c #20429A",
"U 	c #2F60B6",
"V 	c #408DE0",
"W 	c #458AE1",
"X 	c #358BE2",
"Y 	c #408BDF",
"Z 	c #4189E2",
"` 	c #3A8BE0",
" .	c #3D8BDD",
"..	c #388CDB",
"+.	c #3D8AE0",
"@.	c #408AE5",
"#.	c #468BDC",
"$.	c #428ADC",
"%.	c #3C88DB",
"&.	c #3585D4",
"*.	c #2883D1",
"=.	c #247CD0",
"-.	c #1976C7",
";.	c #0E73BD",
">.	c #096BB7",
",.	c #0067B0",
"'.	c #0161A9",
").	c #005CA1",
"!.	c #005699",
"~.	c #004E90",
"{.	c #004789",
"].	c #004281",
"^.	c #003C7A",
"/.	c #013573",
"(.	c #093A7B",
"_.	c #21439B",
":.	c #3061B6",
"<.	c #4593E4",
"[.	c #4692E0",
"}.	c #80A2A4",
"|.	c #B3C26C",
"1.	c #A8BA70",
"2.	c #92A478",
"3.	c #C1CF6D",
"4.	c #6CA1B6",
"5.	c #5996D0",
"6.	c #BBC480",
"7.	c #B2BA9C",
"8.	c #418BDC",
"9.	c #468CDB",
"0.	c #3D8AD8",
"a.	c #6695B6",
"b.	c #9AA973",
"c.	c #B3C290",
"d.	c #8CA094",
"e.	c #99ABA4",
"f.	c #B4C3BB",
"g.	c #2D708F",
"h.	c #B6C28E",
"i.	c #93A777",
"j.	c #A3B45D",
"k.	c #98A85C",
"l.	c #98A758",
"m.	c #97AC6D",
"n.	c #003472",
"o.	c #20439A",
"p.	c #1C3E94",
"q.	c #3262B5",
"r.	c #4796E4",
"s.	c #4B96E5",
"t.	c #468EE3",
"u.	c #D3DD67",
"v.	c #537872",
"w.	c #3D7ED1",
"x.	c #8DAB91",
"y.	c #D3DA72",
"z.	c #3D8CE0",
"A.	c #B6C294",
"B.	c #587287",
"C.	c #4795E3",
"D.	c #4D93E1",
"E.	c #508ACB",
"F.	c #AEA5A9",
"G.	c #9EA36F",
"H.	c #CCD1A6",
"I.	c #0B5689",
"J.	c #02527F",
"K.	c #828C7F",
"L.	c #81A391",
"M.	c #013156",
"N.	c #0A4970",
"O.	c #F8F470",
"P.	c #082B4D",
"Q.	c #003168",
"R.	c #7A845B",
"S.	c #003573",
"T.	c #0A387A",
"U.	c #1D4094",
"V.	c #193C8F",
"W.	c #3362B5",
"X.	c #509AEB",
"Y.	c #5199E8",
"Z.	c #4E98ED",
"`.	c #DDE369",
" +	c #567F9F",
".+	c #549AEA",
"++	c #83ADA3",
"@+	c #D0D774",
"#+	c #4684CE",
"$+	c #DAD6B8",
"%+	c #375C86",
"&+	c #7A97A8",
"*+	c #7D844F",
"=+	c #968E88",
"-+	c #636A6E",
";+	c #AFB281",
">+	c #929A86",
",+	c #213F47",
"'+	c #193F4F",
")+	c #083446",
"!+	c #094054",
"~+	c #033E5E",
"{+	c #335E4E",
"]+	c #E5E573",
"^+	c #00214F",
"/+	c #003D70",
"(+	c #00284D",
"_+	c #00346C",
":+	c #0A3877",
"<+	c #1A3E91",
"[+	c #17388A",
"}+	c #3363B3",
"|+	c #54A0EC",
"1+	c #54A1E9",
"2+	c #629EDD",
"3+	c #E8EC66",
"4+	c #578BB9",
"5+	c #559EE9",
"6+	c #BDC668",
"7+	c #8B977F",
"8+	c #868A8C",
"9+	c #EAE4CD",
"0+	c #9D947A",
"a+	c #A3A759",
"b+	c #E3E67F",
"c+	c #585D53",
"d+	c #38483B",
"e+	c #DCDCB3",
"f+	c #8A9079",
"g+	c #56695A",
"h+	c #57735F",
"i+	c #094050",
"j+	c #044359",
"k+	c #013D5A",
"l+	c #557C50",
"m+	c #CACB6B",
"n+	c #003560",
"o+	c #003865",
"p+	c #003665",
"q+	c #003265",
"r+	c #083671",
"s+	c #183A8D",
"t+	c #163688",
"u+	c #3363B0",
"v+	c #5CA6EC",
"w+	c #5BA3EA",
"x+	c #719B8A",
"y+	c #ECF178",
"z+	c #4B563C",
"A+	c #8B8F54",
"B+	c #2D3321",
"C+	c #444632",
"D+	c #384431",
"E+	c #E6E4AF",
"F+	c #444923",
"G+	c #838632",
"H+	c #979C5E",
"I+	c #4D5747",
"J+	c #606953",
"K+	c #F5F1D2",
"L+	c #152426",
"M+	c #0D313C",
"N+	c #152C34",
"O+	c #033F4C",
"P+	c #043F52",
"Q+	c #003E55",
"R+	c #80954C",
"S+	c #B2B869",
"T+	c #003960",
"U+	c #003A67",
"V+	c #003565",
"W+	c #003466",
"X+	c #08356F",
"Y+	c #143483",
"Z+	c #3363AF",
"`+	c #5192C0",
" @	c #305E6B",
".@	c #8C9635",
"+@	c #C1C36D",
"@@	c #17220D",
"#@	c #242A15",
"$@	c #2E3822",
"%@	c #262C15",
"&@	c #50552F",
"*@	c #CFD27F",
"=@	c #363F1F",
"-@	c #B4B755",
";@	c #50553E",
">@	c #273325",
",@	c #515C45",
"'@	c #E8E7C1",
")@	c #253839",
"!@	c #294B4F",
"~@	c #16414E",
"{@	c #0B454F",
"]@	c #053D4F",
"^@	c #00395B",
"/@	c #AEB74F",
"(@	c #8B9862",
"_@	c #00476F",
":@	c #003764",
"<@	c #003363",
"[@	c #09346F",
"}@	c #153584",
"|@	c #11327F",
"1@	c #3C5A75",
"2@	c #657839",
"3@	c #40501F",
"4@	c #C0C642",
"5@	c #949955",
"6@	c #798D42",
"7@	c #788741",
"8@	c #7A8C3E",
"9@	c #374417",
"0@	c #9BA142",
"a@	c #70743F",
"b@	c #424B21",
"c@	c #DBDC8D",
"d@	c #979A75",
"e@	c #6D8145",
"f@	c #7B865C",
"g@	c #CDCDA1",
"h@	c #15302B",
"i@	c #1C3739",
"j@	c #6E7758",
"k@	c #18393A",
"l@	c #0D4252",
"m@	c #003352",
"n@	c #DCDE53",
"o@	c #526754",
"p@	c #014069",
"q@	c #003264",
"r@	c #13347F",
"s@	c #0F307A",
"t@	c #445C6B",
"u@	c #8EA148",
"v@	c #A2B04D",
"w@	c #9DA04D",
"x@	c #939C54",
"y@	c #85904D",
"z@	c #93A64E",
"A@	c #96A84E",
"B@	c #95A74F",
"C@	c #A6AE4C",
"D@	c #646D2E",
"E@	c #A3B851",
"F@	c #B1B480",
"G@	c #676F41",
"H@	c #768944",
"I@	c #848B68",
"J@	c #8B9465",
"K@	c #828D4D",
"L@	c #859149",
"M@	c #8E994D",
"N@	c #1A4042",
"O@	c #002F46",
"P@	c #5B734C",
"Q@	c #7A8553",
"R@	c #6F7F55",
"S@	c #154559",
"T@	c #003C67",
"U@	c #003465",
"V@	c #08346C",
"W@	c #12327B",
"X@	c #0E2D77",
"Y@	c #42596A",
"Z@	c #95A159",
"`@	c #92A058",
" #	c #94A557",
".#	c #96A054",
"+#	c #9AA757",
"@#	c #98A859",
"##	c #9AAA5B",
"$#	c #A9B45E",
"%#	c #A7B058",
"&#	c #A8B75C",
"*#	c #A6B159",
"=#	c #9CA958",
"-#	c #718135",
";#	c #7D934A",
">#	c #748E4B",
",#	c #7B985A",
"'#	c #7B9861",
")#	c #65895C",
"!#	c #5B8260",
"~#	c #44715F",
"{#	c #2F6459",
"]#	c #134D54",
"^#	c #054356",
"/#	c #013958",
"(#	c #003B62",
"_#	c #003D65",
":#	c #003561",
"<#	c #003364",
"[#	c #07336D",
"}#	c #122F77",
"|#	c #0E2973",
"1#	c #3F556A",
"2#	c #93A053",
"3#	c #8B9751",
"4#	c #697535",
"5#	c #95A755",
"6#	c #95A752",
"7#	c #95A64B",
"8#	c #92A053",
"9#	c #A2AF55",
"0#	c #8B9744",
"a#	c #9BA45A",
"b#	c #9DAA52",
"c#	c #99A354",
"d#	c #94A353",
"e#	c #98A45F",
"f#	c #93A266",
"g#	c #86985E",
"h#	c #799260",
"i#	c #547246",
"j#	c #577E5A",
"k#	c #3F6D53",
"l#	c #255D4F",
"m#	c #165653",
"n#	c #0A5155",
"o#	c #054B5A",
"p#	c #03495E",
"q#	c #014464",
"r#	c #004069",
"s#	c #003767",
"t#	c #06346A",
"u#	c #112B73",
"v#	c #112468",
"w#	c #334758",
"x#	c #6C7A19",
"y#	c #7F8A46",
"z#	c #95A34B",
"A#	c #99A751",
"B#	c #A0AC55",
"C#	c #A0AF58",
"D#	c #A1B059",
"E#	c #9DAD55",
"F#	c #97A553",
"G#	c #9BA451",
"H#	c #A5B152",
"I#	c #97A556",
"J#	c #A4B35D",
"K#	c #99AD62",
"L#	c #92A467",
"M#	c #889E5A",
"N#	c #749355",
"O#	c #69885D",
"P#	c #547850",
"Q#	c #39644A",
"R#	c #316557",
"S#	c #246059",
"T#	c #0E5A5C",
"U#	c #064F5D",
"V#	c #024A67",
"W#	c #004168",
"X#	c #003B67",
"Y#	c #003365",
"Z#	c #073168",
"`#	c #122669",
" $	c #0C1A5A",
".$	c #122057",
"+$	c #1E2E4D",
"@$	c #243554",
"#$	c #2A3954",
"$$	c #2B3B51",
"%$	c #2A3A58",
"&$	c #293855",
"*$	c #2E3C5A",
"=$	c #2B3A59",
"-$	c #2C3B59",
";$	c #2C3A58",
">$	c #32405B",
",$	c #31405C",
"'$	c #30405B",
")$	c #303E5C",
"!$	c #2E3E5D",
"~$	c #304060",
"{$	c #2A3B5E",
"]$	c #23385E",
"^$	c #22365E",
"/$	c #203660",
"($	c #1D3461",
"_$	c #193260",
":$	c #122F5E",
"<$	c #0F2B5F",
"[$	c #0C2A5E",
"}$	c #0B2860",
"|$	c #0B265F",
"1$	c #0A235F",
"2$	c #0C215E",
"3$	c #B7B87C",
"4$	c #B8B97D",
"5$	c #B8B87D",
"6$	c #B8B97C",
"7$	c #B8B87C",
"8$	c #B9B97C",
"  . + @ # $ % & & * = - @ ; = > , ' ) ! ~ { ] ^ / ( _ : < [ } | ",
"  1 2 3 4 5 6 6 7 8 9 0 a b c d e f g h i j k l m n o p q r s t ",
"u v w x y z z A A B A B C B 8 D E F G H I J K L M N O P Q R S u ",
"T U V W X Y Z `  ...+.@.#.$.%.&.*.=.-.;.>.,.'.).!.~.{.].^./.(._.",
"T :.<.[.}.|.1.2.3.4.5.6.7.8.9.0.a.b.c.d.e.f.g.h.i.j.k.l.m.n.(.o.",
"p.q.r.s.t.u.v.w.x.y.z.A.B.C.D.E.F.G.H.I.J.K.L.M.N.O.P.Q.R.S.T.U.",
"V.W.X.Y.Z.`. +.+++@+#+$+%+&+*+=+-+;+>+,+'+)+!+~+{+]+^+/+(+_+:+<+",
"[+}+|+1+2+3+4+5+6+7+8+9+0+a+b+c+d+e+f+g+h+i+j+k+l+m+n+o+p+q+r+s+",
"t+u+v+w+x+y+z+A+B+C+D+E+F+G+H+I+J+K+L+M+N+O+P+Q+R+S+T+U+V+W+X+[+",
"Y+Z+`+ @.@+@@@#@$@%@&@*@=@-@;@>@,@'@)@!@~@{@]@^@/@(@_@:@<@q+[@}@",
"|@1@2@3@4@5@6@7@8@9@0@a@b@c@d@e@f@g@h@i@j@k@l@m@n@o@_@p@V+q@[@r@",
"s@t@u@v@w@x@y@z@A@B@C@D@E@F@G@H@I@J@K@L@M@N@O@P@Q@R@S@T@U@q@V@W@",
"X@Y@Z@`@ #.#+#@###$#%#&#*#=#-#;#>#,#'#)#!#~#{#]#^#/#(#_#:#<#[#}#",
"|#1#2#3#4#5#6#7#8#9#0#a#b#c#d#e#f#g#h#i#j#k#l#m#n#o#p#q#r#s#t#u#",
"v#w#x#y#z#A#B#C#D#E#F#G#H#I#J#K#L#M#N#O#P#Q#R#S#T#U#V#W#X#Y#Z#`#",
" $.$+$@$#$$$%$&$*$=$-$;$>$,$'$)$!$~${$]$^$/$($_$:$<$[$}$|$1$2$ $",
"3$4$5$5$4$4$6$4$6$6$6$6$6$7$3$6$7$7$6$6$6$6$6$6$6$6$6$8$6$8$8$6$"};
